<?xml version="1.0" encoding="UTF-8"?>
<!-- Created with Inkscape (http://www.inkscape.org/) -->
<svg width="43.095mm" height="43.095mm" version="1.1" viewBox="0 0 43.095 43.095" xml:space="preserve" xmlns="http://www.w3.org/2000/svg"><defs><linearGradient id="linearGradient42131" x1="194.97" x2="189.8" y1="174.82" y2="169.65" gradientTransform="translate(-56.539,-5.5893)" gradientUnits="userSpaceOnUse"><stop stop-color="#44abbe" offset="0"/><stop stop-color="#fefcfb" stop-opacity="0" offset="1"/></linearGradient><linearGradient id="linearGradient9068" x1="145.92" x2="129.48" y1="168.6" y2="140.12" gradientTransform="translate(-115.16,-127.95)" gradientUnits="userSpaceOnUse"><stop stop-color="#44abbe" offset="0"/><stop stop-color="#7fe7f4" offset=".4778"/><stop stop-color="#fff" offset="1"/></linearGradient></defs><circle cx="21.55" cy="21.55" r="21.016" fill="url(#linearGradient9068)" stop-color="#000000" stroke="#202d38" stroke-linejoin="round" stroke-width="1.0632" style="paint-order:normal"/><circle cx="21.55" cy="21.55" r="18.803" fill="#feeeb8" stop-color="#000000" stroke="#f00" stroke-linejoin="round" stroke-width="1.0636" style="paint-order:normal"/><path d="m23.15 39.43s-2.9917-7.1109-4.6974-9.2599c-1.7056-2.149-3.292-2.4861-6.1826-3.9248-1.8462-0.91894-3.5854-3.6055-4.8261-2.7554-1.2407 0.85009-1.0301 1.563-0.46767 2.8427 0.35125 0.79919 1.4133 1.7645 2.7358 2.6691 0.79506 0.54389 2.5761 1.5787 2.5761 1.5787s-4.5063-0.91925-5.7438-4.6535c-0.31507-1.29-0.34801-0.28091-0.93896-5.286-0.2018-1.113-0.76002-1.5099-1.3343-1.4893-0.73835 0.0265-1.5034 0.7436-1.5741 1.5177-0.12555 1.3762-0.31407 2.3035 0.15554 4.7139 0.21656 1.1116 0.75866 3.078 1.5198 4.4473 0.56747 1.0209 1.2966 1.9951 2.218 2.713 1.9771 1.5406 5.211 2.0396 6.8078 3.1921s3.144 4.4395 3.144 4.4395m7.5814-0.0992s2.5163-0.0534 2.5951-0.49857c0.23587-1.3328 0.79057-2.9778 1.9876-3.8417 1.5968-1.1525 4.8307-1.6514 6.8079-3.1921 0.92131-0.71791 1.6505-1.6921 2.218-2.713 0.76115-1.3693 1.3032-3.3357 1.5198-4.4473 0.46961-2.4105 0.2811-3.3377 0.15555-4.7139-0.0706-0.77413-0.83571-1.4913-1.5741-1.5177-0.57427-0.0206-1.1325 0.37632-1.3343 1.4893-0.59095 5.0051-0.62389 3.996-0.93896 5.286-1.2375 3.7342-5.7438 4.6535-5.7438 4.6535s1.781-1.0348 2.5761-1.5787c1.3224-0.90462 2.3845-1.8699 2.7358-2.6691 0.56243-1.2797 0.77303-1.9926-0.46767-2.8427s-2.9799 1.8364-4.8261 2.7554c-2.8906 1.4388-4.4769 1.7758-6.1826 3.9248s-2.3823 5.688-2.3823 5.688" fill="#fbfefb"/><path d="m22.14 36.18s0.64022-4.2477 5.659-7.1242c2.7454-1.5735 4.2135-2.2413 5.8452-3.8416 0.99868-0.97941 2.2376-0.74545 2.2376-0.74545l-0.42094 2.1281-1.5903 1.7773-3.5313 1.9644-0.46772 0.53788s2.7188 1.0613 5.7923-2.3451c1.7497-1.9392 2.4429-5.0821 2.5317-7.1006 0.0587-1.3332 1.5738-1.4955 1.5738-1.4955l0.30263 3.544-1.5214 5.1924-1.819 3.3734-1.6867 1.4883-3.638 0.95911-2.8773 1.4552-1.7859 2.9435-0.79375 1.2898-2.2159-2.4805z" fill="#7fe7f4"/><path d="m20.83 36.18s-0.64849-4.2477-5.6672-7.1242c-2.7454-1.5735-4.2135-2.2413-5.8452-3.8416-0.99868-0.97941-2.2376-0.74545-2.2376-0.74545l0.42094 2.1281 1.5903 1.7773 3.5313 1.9644 0.46772 0.53788s-2.7188 1.0613-5.7923-2.3451c-1.7497-1.9392-2.4429-5.0821-2.5317-7.1006-0.0587-1.3332-1.5738-1.4955-1.5738-1.4955l-0.30263 3.544 1.5214 5.1924 1.819 3.3734 1.6867 1.4883 3.638 0.95911 2.8773 1.4552 1.7859 2.9435 0.79375 1.2898 2.2159-2.4805z" fill="#7fe7f4"/><path d="m18.65 37.75s-0.96803-4.4716-8.8966-5.887c-3.529-0.62999-6.3255-9.001-6.3255-9.001l-0.38834 1.1297 2.0505 6.6807 2.2159 2.2159 3.4065 1.5875 3.7703 1.6206 2.1497 3.605 1.7373 0.61355 0.84239-1.8703z" fill="#44abbe"/><path d="m24.31 37.75s0.96803-4.4716 8.8966-5.887c3.529-0.62999 6.3255-9.001 6.3255-9.001l0.38834 1.1297-2.0505 6.6807-2.2159 2.2159-3.4065 1.5875-3.7703 1.6206-2.1497 3.605-0.4961 0.85989-2.0836-2.1167z" fill="#44abbe"/><circle cx="21.55" cy="21.55" r="18.803" fill="none" stop-color="#000000" stroke="#202d38" stroke-linejoin="round" stroke-width="1.0636" style="paint-order:normal"/><g transform="translate(-115.16,-127.95)"><circle cx="136.71" cy="167.47" r="2.9023" fill="#fff" stop-color="#000000" style="paint-order:normal"/><circle cx="136.71" cy="167.47" r="2.9023" fill="url(#linearGradient42131)" stop-color="#000000" stroke="#202d38" stroke-linecap="round" stroke-linejoin="round" stroke-width="1.053" style="paint-order:normal"/><path d="m137.52 167.43a0.81029 0.81029 0 0 1-0.77507 0.84399 0.81029 0.81029 0 0 1-0.84403-0.77502 0.81029 0.81029 0 0 1 0.77497-0.84408 0.81029 0.81029 0 0 1 0.84412 0.77493l-0.80954 0.0346z" fill="#202d38" stop-color="#000000" style="paint-order:stroke fill markers"/><rect x="127.03" y="148.55" width="19.364" height="2.5491" rx="1.0422" ry=".93402" fill="#fbfefa" stop-color="#000000" style="paint-order:normal"/><rect x="128.26" y="149.46" width="16.891" height="1.9699" rx="1.0422" ry=".93402" fill="#7fe7f4" stop-color="#000000" style="paint-order:stroke fill markers"/><path d="m126.98 149.6 0.10591 2.4121 9.6232 0.17703 9.6232-0.17703 0.10591-2.4121s-0.18972 1.0496-0.9911 1.1376c-0.57215 0.0628-4.5977 0.0633-8.738 0.0469-4.1404 0.0164-8.1659 0.0159-8.738-0.0469-0.80138-0.088-0.99109-1.1376-0.99109-1.1376z" fill="#27a7ae" stop-color="#000000" stroke-linejoin="round" stroke-width="1.0247" style="paint-order:stroke fill markers"/><g stroke-linejoin="round" stroke-width="1.005"><path d="m127.87 137.23 0.9164-1.0815h14.944l1.5416 0.76688 0.25563 9.2223h-17.697z" fill="#a1eacc" stop-color="#000000"/><path d="m127.9 145.72h15.259s0.51065 0.14087 2.1237-1.1405c0.73059-0.58036-0.25563 2.9496-0.25563 2.9496l-17.088-0.0983z" fill="#27a7ae" stop-color="#000000"/><path d="m128.17 136.2h16.223c0.32681 0 0.67974 0.30924 0.58991 0.66857l-0.059 0.23597c-0.0898 0.35932 0.16949 0.19426-0.15731 0.19663-5.2327 3e-3 -12.798 0.0148-14.713 0.0729-2.3707 0.072-2.2224 9.4552-2.236 7.0835l-0.23716-7.589c-0.0116-0.37021 0.2631-0.66857 0.58991-0.66857z" fill="#fff" stop-color="#000000" style="paint-order:stroke fill markers"/><path d="m130.39 135.63c-1.6947 0-3.0587 1.3641-3.0587 3.0587v6.2079c0 1.6947 1.3641 3.0592 3.0587 3.0592h12.356c1.6947 0 3.0592-1.3646 3.0592-3.0592v-6.2079c0-1.6947-1.3646-3.0587-3.0592-3.0587zm-1.6516 12.693c-1.1554 0-2.0857 0.81824-2.0857 1.835 0 1.0168 0.93021 1.8356 2.0857 1.8356h15.934c1.1554 0 2.0857-0.81875 2.0857-1.8356 0-1.0168-0.93021-1.835-2.0857-1.835z" fill="none" stop-color="#000000" stroke="#202d38" style="paint-order:normal"/></g><path d="m136.58 139.17c-0.3155 0-0.56962 0.22389-0.56962 0.50228v1.064h-1.0635c-0.2784 0-0.50273 0.25369-0.50273 0.5692v0.25135c0 0.31552 0.22433 0.56964 0.50273 0.56964h1.0635v1.0635c0 0.2784 0.25412 0.50272 0.56962 0.50272h0.25137c0.3155 0 0.56962-0.22432 0.56962-0.50272v-1.0635h1.0635c0.27839 0 0.50228-0.25412 0.50228-0.56964v-0.25135c0-0.31551-0.22389-0.5692-0.50228-0.5692h-1.0635v-1.064c0-0.27839-0.25412-0.50228-0.56962-0.50228z" fill="#fff" stop-color="#000000" stroke="#1c3138" stroke-linecap="square" stroke-width="2" style="paint-order:stroke fill markers"/></g><rect x="19.64" y="21.62" width="3.8147" height="1.052" rx=".33428" ry=".33428" fill="#202d38" stop-color="#000000" style="paint-order:stroke fill markers"/><g transform="matrix(.080498 -.30042 .30042 .080498 -55.417 46.96)" fill="none" stroke="#202d38"><path transform="translate(-1.6331e-6)" d="m142.8 169.06c6.1418-5.6395 15.292-5.637 21.431 0m-17.992 3.9688c4.4604-3.8568 10.096-3.8532 14.552 0m-10.848 3.7042c2.5192-1.6597 4.6246-1.6597 7.1438 0" fill="none" stroke="#202d38" stroke-linecap="round" stroke-width="2.5"/></g><g transform="matrix(-.080498 -.30042 -.30042 .080498 98.51 46.96)" fill="none" stroke="#202d38"><path transform="translate(-1.6331e-6)" d="m142.8 169.06c6.1418-5.6395 15.292-5.637 21.431 0m-17.992 3.9688c4.4604-3.8568 10.096-3.8532 14.552 0m-10.848 3.7042c2.5192-1.6597 4.6246-1.6597 7.1438 0" fill="none" stroke="#202d38" stroke-linecap="round" stroke-width="2.5"/></g><path d="m7.49 24.38s1.057 1.9243 2.1374 2.7394c1.0804 0.81508 2.5176 3.2012 2.5176 3.2012l-1.8862-0.617-2.4722-2.2407-1.2816-3.0014z" fill="#44abbe"/><path d="m21.26 35.76s-0.67663-3.539-2.3823-5.688c-1.7056-2.149-3.292-2.4861-6.1826-3.9248-1.8462-0.91894-3.5854-3.6055-4.8261-2.7554-1.2407 0.85009-1.0301 1.563-0.46767 2.8427 0.35125 0.79919 1.4133 1.7645 2.7358 2.6691 0.79506 0.54389 2.5761 1.5787 2.5761 1.5787s-4.5063-0.91925-5.7438-4.6535c-0.31507-1.29-0.34801-0.28092-0.93896-5.286-0.2018-1.113-0.76002-1.5099-1.3343-1.4893-0.73835 0.0265-1.5034 0.7436-1.5741 1.5177-0.12555 1.3762-0.31407 2.3035 0.15554 4.7139 0.21656 1.1116 0.75866 3.078 1.5198 4.4473 0.56747 1.0209 1.2966 1.9951 2.218 2.713 1.9771 1.5406 5.211 2.0396 6.8078 3.1921s2.1187 3.315 2.1187 3.315" fill="none" stroke="#202d38" stroke-linecap="square" stroke-linejoin="round" stroke-width="1.005"/><path d="m35.47 24.38s-1.057 1.9243-2.1374 2.7394c-1.0804 0.81508-2.5176 3.2012-2.5176 3.2012l1.8862-0.617 2.4722-2.2407 1.2816-3.0014z" fill="#44abbe"/><path d="m21.7 35.76s0.67663-3.539 2.3823-5.688c1.7056-2.149 3.292-2.4861 6.1826-3.9248 1.8462-0.91894 3.5854-3.6055 4.8261-2.7554 1.2407 0.85009 1.0301 1.563 0.46767 2.8427-0.35125 0.79919-1.4133 1.7645-2.7358 2.6691-0.79506 0.54389-2.5761 1.5787-2.5761 1.5787s4.5063-0.91925 5.7438-4.6535c0.31507-1.29 0.34801-0.28092 0.93896-5.286 0.2018-1.113 0.76002-1.5099 1.3343-1.4893 0.73835 0.0265 1.5034 0.7436 1.5741 1.5177 0.12555 1.3762 0.31407 2.3035-0.15554 4.7139-0.21656 1.1116-0.75866 3.078-1.5198 4.4473-0.56747 1.0209-1.2966 1.9951-2.218 2.713-1.9771 1.5406-5.211 2.0396-6.8078 3.1921s-2.1187 3.315-2.1187 3.315" fill="none" stroke="#202d38" stroke-linecap="square" stroke-linejoin="round" stroke-width="1.005"/></svg>
