<?xml version="1.0" encoding="UTF-8" standalone="no"?>
<!-- Uploaded to: SVG Repo, www.svgrepo.com, Generator: SVG Repo Mixer Tools -->

<svg
   id="_x32_"
   width="798.59399"
   height="798.59399"
   version="1.1"
   viewBox="0 0 511.10016 511.10016"
   xml:space="preserve"
   sodipodi:docname="quote-left.svg"
   inkscape:version="1.2.1 (9c6d41e410, 2022-07-14)"
   xmlns:inkscape="http://www.inkscape.org/namespaces/inkscape"
   xmlns:sodipodi="http://sodipodi.sourceforge.net/DTD/sodipodi-0.dtd"
   xmlns="http://www.w3.org/2000/svg"
   xmlns:svg="http://www.w3.org/2000/svg"><sodipodi:namedview
   id="namedview187"
   pagecolor="#ffffff"
   bordercolor="#666666"
   borderopacity="1.0"
   inkscape:showpageshadow="2"
   inkscape:pageopacity="0.0"
   inkscape:pagecheckerboard="0"
   inkscape:deskcolor="#d1d1d1"
   showgrid="false"
   inkscape:zoom="0.97922099"
   inkscape:cx="388.06358"
   inkscape:cy="399.297"
   inkscape:window-width="1920"
   inkscape:window-height="1027"
   inkscape:window-x="760"
   inkscape:window-y="213"
   inkscape:window-maximized="1"
   inkscape:current-layer="_x32_" /><defs
   id="defs314">
	
	
</defs>
<style
   type="text/css"
   id="style303">
	.st0{fill:#000000;}
</style>
<path
   class="st0"
   d="m 392.10008,66.784185 c 66,0 119,53.499995 119,119.999995 0,66 -53.5,119 -119,119 0,0 0.578,44.4 36.6,108 4.01,12.8 -3.14,26.4 -15.9,30.4 -9.09,2.86 -18.7,0.08 -24.8,-6.39 -82.9,-90.7 -115,-197 -115,-252 0,-66 53.5,-119.999995 120,-119.999995 z"
   id="path305"
   style="fill:#3fbfbc;fill-opacity:0.46666667" /><path
   class="st0"
   d="m 119.10008,66.784185 c 66,0 119,53.499995 119,119.999995 0,66 -53.5,119 -119,119 0,0 0.578,44.4 36.6,108 4.01,12.8 -3.14,26.4 -15.9,30.4 -9.09,2.86 -18.7,0.08 -24.8,-6.39 -82.9,-90.7 -115,-197 -115,-252 0,-66 53.5,-119.999995 120,-119.999995 z"
   id="path307"
   style="fill:#3fbfbc;fill-opacity:0.46666667" />
</svg>
